<svg viewBox="95 140 280 90" fill="none" xmlns="http://www.w3.org/2000/svg">
<path d="M162.597 191.449C160.114 182.067 151.765 179.609 147.636 179.609C147.606 179.609 147.606 179.609 147.576 179.609C144.943 179.609 142.549 180.179 140.395 181.288C139.437 181.767 137.193 183.416 136.116 185.394C136.086 185.364 136.056 185.334 136.026 185.304C134.56 183.566 132.765 182.217 130.67 181.228C128.606 180.269 126.242 179.729 124.267 179.759C121.634 179.759 119.24 180.329 117.086 181.438C116.068 181.947 115.051 182.607 114.093 183.386C113.555 182.697 112.867 182.097 112.059 181.618C111.341 181.198 110.443 180.898 109.246 180.688C108.289 180.539 107.75 180.449 107.421 180.718C107.062 181.018 107.062 181.618 107.062 182.906C107.062 183.296 107.062 183.716 107.032 184.225C107.002 185.424 106.942 186.683 106.852 188.002C106.762 189.411 106.673 190.55 106.583 191.539L106.553 191.989C106.463 192.888 106.403 193.607 106.344 194.207L105.805 200.111C105.745 200.561 105.685 201.041 105.655 201.49L105.057 208.144C104.997 208.774 104.937 209.583 104.847 210.512L104.818 210.902C104.698 212.131 104.578 213.3 104.458 214.499C104.309 215.908 104.129 217.166 103.95 218.365C103.89 218.785 103.83 219.175 103.77 219.504C103.531 221.033 103.411 221.722 103.92 221.992C104.189 222.112 104.458 222.142 104.758 222.142C105.266 222.142 105.865 221.992 106.703 221.812H106.762C107.331 221.662 107.9 221.453 108.528 221.093C109.904 220.344 110.742 219.325 111.43 218.335C112.238 217.196 112.867 215.908 113.286 214.499C113.704 213.12 113.944 211.741 114.093 210.392C114.243 208.804 114.512 205.477 114.782 201.94L115.021 198.912C115.53 192.588 117.056 188.631 123.01 188.272C127.259 188.032 129.025 190.909 129.743 193.337C130.191 194.866 130.371 196.634 130.251 198.463C129.922 203.558 129.384 211.172 128.336 218.215C128.306 218.425 128.276 218.605 128.247 218.815C128.037 220.074 127.887 221.093 128.276 221.603C128.426 221.782 128.636 221.902 128.935 221.932H128.965H128.995C129.294 221.872 129.623 221.812 129.982 221.722L130.102 221.692C130.67 221.543 131.239 221.333 131.867 220.973C133.244 220.224 134.081 219.205 134.77 218.215C135.577 217.076 136.206 215.788 136.625 214.379C137.044 213 137.283 211.621 137.433 210.272C137.582 208.684 137.852 205.357 138.121 201.82L138.36 198.823C138.51 197.054 138.749 194.806 139.497 192.918C140.664 189.89 142.848 188.392 146.349 188.182C148.324 188.062 149.97 188.631 151.197 189.86C152.962 191.629 153.83 194.716 153.591 198.373C153.261 203.468 152.723 211.082 151.676 218.126C151.646 218.335 151.616 218.515 151.586 218.725C151.376 220.104 151.197 221.093 151.676 221.573C151.915 221.812 152.274 221.872 152.813 221.782C153.979 221.573 155.206 221.333 156.254 220.763C157.51 220.044 158.558 219.115 159.395 217.976C160.233 216.777 160.862 215.458 161.251 214.079C161.64 212.73 161.909 211.322 162.058 209.913L162.836 201.28C163.106 198.193 163.285 194.027 162.597 191.449Z" fill="#5452D3"/>
<path fill-rule="evenodd" clip-rule="evenodd" d="M193.686 203.529C193.955 203.529 194.194 203.589 194.434 203.679L194.673 203.649C194.643 204.608 194.464 205.627 194.194 206.796C193.925 207.935 193.446 209.074 192.788 210.153C192.19 211.232 191.352 212.191 190.275 213.03C189.108 213.9 187.821 214.439 186.325 214.589L186.145 214.619C185.966 214.619 185.816 214.649 185.637 214.679C185.457 214.709 185.308 214.739 185.128 214.739C183.692 214.769 182.555 214.619 181.747 214.319C180.909 214.019 180.281 213.6 179.862 213.06C179.413 212.491 179.084 211.891 178.964 211.292C178.814 210.692 178.785 210.123 178.785 209.553C178.814 209.224 178.844 208.954 178.904 208.804C178.994 207.845 179.383 206.976 180.011 206.166C180.759 205.177 181.837 204.428 183.243 203.888C184.35 203.529 185.577 203.289 186.863 203.169C187.073 203.139 187.252 203.139 187.462 203.139C188.39 203.079 189.317 203.079 190.215 203.139C191.112 203.199 191.92 203.259 192.638 203.319C193.087 203.469 193.416 203.529 193.686 203.529ZM187.253 196.845C187.103 196.845 186.983 196.845 186.834 196.875C184.799 196.994 182.824 197.354 180.939 197.954C179.054 198.553 177.318 199.392 175.792 200.471C174.206 201.52 172.98 202.839 172.082 204.428C171.125 205.927 170.616 207.755 170.496 209.913L170.466 210.333C170.406 212.611 170.855 214.559 171.843 216.208C172.501 217.377 173.339 218.366 174.326 219.115C175.344 219.894 176.451 220.494 177.677 220.913C178.874 221.333 180.071 221.633 181.328 221.753C182.585 221.903 183.782 221.933 184.948 221.873L185.906 221.813H186.026C186.355 221.783 186.684 221.753 187.013 221.663C189.497 221.243 191.771 220.404 193.835 219.175C194.853 218.546 196.349 218.426 196.857 218.575C197.396 218.725 197.546 219.834 198.264 220.614C198.952 221.393 202.932 222.712 203.799 220.284C204.667 217.856 204.099 203.019 204.248 200.142L204.278 199.572C204.428 193.967 203.021 189.561 200.059 186.324C197.127 183.057 193.117 181.588 188.03 181.888H187.941L186.534 181.978C181.537 182.607 177.109 184.945 173.458 188.722C172.77 189.411 172.98 189.681 173.309 189.951C176.6 192.798 178.844 191.449 181.537 190.49C182.345 190.22 183.093 189.891 183.871 189.651C184.649 189.411 185.427 189.231 186.205 189.141C186.385 189.141 186.534 189.111 186.654 189.081C186.804 189.051 186.953 189.021 187.103 189.021C187.282 189.021 187.462 188.991 187.641 188.991C188.958 188.961 190.065 189.201 191.023 189.681C192.429 190.37 193.416 191.539 194.075 193.218C194.314 193.907 194.494 194.656 194.643 195.376C194.763 196.125 194.883 196.875 194.942 197.624C193.686 197.324 192.399 197.084 191.023 196.964C189.796 196.815 188.539 196.785 187.253 196.845Z" fill="#5452D3"/>
<path fill-rule="evenodd" clip-rule="evenodd" d="M313.315 203.619C313.375 203.619 313.554 203.679 313.554 203.679C313.524 204.638 313.345 205.657 313.076 206.826C312.806 207.965 312.328 209.104 311.669 210.183C311.071 211.263 310.233 212.222 309.156 213.061C307.989 213.93 306.702 214.47 305.206 214.62L305.027 214.65C304.847 214.65 304.697 214.68 304.518 214.71C304.338 214.739 304.189 214.769 304.009 214.769C302.573 214.799 301.436 214.65 300.628 214.35C299.79 214.05 299.162 213.63 298.743 213.091C298.294 212.521 297.965 211.922 297.845 211.322C297.696 210.723 297.666 210.154 297.666 209.584C297.696 209.254 297.726 208.985 297.785 208.835C297.875 207.876 298.264 207.006 298.893 206.197C299.641 205.208 300.718 204.459 302.124 203.919C303.231 203.559 304.458 203.32 305.745 203.2C305.954 203.17 306.134 203.17 306.343 203.17C307.271 203.11 308.198 203.11 309.096 203.17C309.994 203.23 310.802 203.29 311.52 203.349C311.909 203.439 312.238 203.499 312.507 203.499M306.164 196.845C306.014 196.845 305.894 196.845 305.745 196.875C303.71 196.995 301.735 197.355 299.85 197.954C297.965 198.554 296.23 199.393 294.704 200.472C293.118 201.521 291.442 202.93 290.544 204.518C289.587 206.017 288.899 207.756 288.779 209.914L288.749 210.333C288.689 212.611 289.557 214.56 290.514 216.208C291.173 217.377 292.19 218.366 293.207 219.146C294.225 219.925 295.332 220.524 296.559 220.944C297.756 221.364 298.952 221.663 300.209 221.783C301.466 221.933 302.663 221.963 303.83 221.903L304.787 221.843H304.907C305.236 221.813 305.565 221.783 305.894 221.693C308.378 221.274 310.652 220.434 312.717 219.206C313.734 218.576 315.23 218.456 315.739 218.606C316.277 218.756 316.427 219.865 317.145 220.644C317.833 221.424 321.813 222.742 322.681 220.315C323.548 217.887 322.98 203.05 323.129 200.172L323.159 199.603C323.309 193.998 321.903 189.592 318.94 186.354C315.978 183.117 311.969 181.649 306.882 181.948H306.792L305.386 182.038C300.389 182.668 295.96 185.006 292.31 188.782C291.622 189.472 291.831 189.741 292.16 190.011C295.452 192.859 297.696 191.51 300.389 190.551C301.197 190.281 301.945 189.951 302.723 189.711C303.501 189.472 304.279 189.292 305.057 189.202C305.236 189.202 305.386 189.172 305.505 189.142C305.655 189.112 305.805 189.082 305.954 189.082C306.134 189.082 306.313 189.052 306.493 189.052C307.809 189.022 308.916 189.262 309.874 189.741C311.28 190.431 312.268 191.6 312.926 193.278C313.165 193.968 313.345 194.717 313.495 195.436C313.614 196.186 313.734 196.935 313.794 197.684C312.537 197.385 311.25 197.145 309.874 197.025C308.707 196.815 307.45 196.785 306.164 196.845Z" fill="#5452D3"/>
<path fill-rule="evenodd" clip-rule="evenodd" d="M246.648 180.359C246.05 180.12 245.451 179.97 244.853 179.88C243.446 179.67 242.1 179.73 240.843 180.12C239.527 180.509 238.39 181.109 237.342 181.888C236.325 182.667 235.397 183.507 234.619 184.466L224.805 196.125L223.608 197.654C223.877 191.779 224.147 184.975 224.506 180.149C224.536 179.73 224.566 179.31 224.596 178.891C224.596 178.861 224.596 178.801 224.596 178.771C225.463 167.95 226.361 160.157 226.69 158.688C226.959 157.519 225.882 156.86 224.087 157.1C223.488 157.19 223.129 157.19 222.172 157.579C220.736 158.149 219.658 159.168 218.372 161.446C217.654 162.705 217.085 164.323 216.696 166.451C216.576 167.081 216.487 167.77 216.397 168.49C216.397 168.49 213.584 198.583 213.674 210.363C213.674 211.742 213.644 213.57 213.883 214.919C214.123 216.268 214.631 217.557 215.409 218.696C216.187 219.805 217.235 220.644 218.611 221.273C219.539 221.723 220.466 221.903 220.855 221.933C222.95 222.053 222.621 220.974 222.8 218.576C222.98 216.328 223.279 209.524 223.279 209.524L231.508 217.617C232.495 218.576 233.572 219.445 234.829 220.194C236.056 220.944 237.402 221.513 238.898 221.783C240.335 222.053 241.861 221.993 243.387 221.603C244.045 221.453 244.703 221.213 245.361 220.884C246.498 219.925 247.037 219.295 244.224 216.867C243.237 216.028 242.279 215.159 241.352 214.29C240.424 213.42 239.557 212.581 238.779 211.802C238.001 211.022 237.342 210.393 236.834 209.883L229.952 203.109L230.849 202.12C231.478 201.371 231.986 200.741 232.405 200.262C238.779 192.678 241.352 189.621 242.16 188.662C242.19 188.632 242.22 188.572 242.279 188.542L242.309 188.512L242.339 188.482C242.968 187.763 243.626 186.983 244.344 186.144C245.092 185.275 245.87 184.436 246.678 183.596C248.025 182.098 247.995 181.199 246.648 180.359Z" fill="#5452D3"/>
<path d="M287.402 181.828C287.133 181.438 286.565 181.438 286.026 181.528C285.158 181.708 281.747 181.888 276.75 182.037C276.601 182.037 276.451 182.037 276.331 182.037C276.301 182.037 276.271 182.037 276.241 182.037C275.942 182.037 274.715 182.037 274.416 182.037C275.314 171.337 276.93 160.456 277.109 158.958C277.259 157.729 277.289 157.039 276.212 157.069C275.493 157.099 274.596 157.009 273.519 157.369C270.526 158.568 269.329 160.067 268.731 160.966C267.893 162.195 267.325 163.933 266.816 166.061C266.666 166.691 266.547 167.38 266.427 168.1C266.427 168.1 265.859 175.953 265.17 181.828C264.901 181.828 264.662 181.798 264.422 181.768C262.447 181.618 256.523 181.078 256.523 181.078C255.476 180.928 254.698 181.138 254.129 181.528C254.069 181.588 254.009 181.618 253.95 181.678C253.441 182.157 253.202 182.817 253.231 183.596C253.231 184.046 253.142 185.185 253.321 186.773C253.501 188.362 253.561 188.931 254.428 189.861C255.326 190.82 257.211 191.329 258.408 191.569C259.725 191.839 261.251 192.079 262.447 192.198C262.866 192.258 263.345 192.288 263.854 192.318C263.016 200.112 263.136 205.147 263.046 210.093C263.016 211.472 262.896 213.3 263.136 214.679C263.315 215.908 263.465 217.496 264.512 218.905C265.41 220.104 266.008 220.644 267.504 221.303C268.552 221.753 269.329 221.842 269.808 221.902C273.279 222.292 273.13 220.164 272.591 217.346C272.262 215.518 272.292 211.951 272.292 209.853C272.292 206.736 272.89 197.054 272.89 197.054C273.1 193.877 273.1 192.768 273.189 192.258C273.908 192.228 275.613 192.198 276.301 192.168C276.84 192.139 277.349 192.109 277.827 192.019C279.742 191.779 281.209 191.239 282.405 190.58C284.59 189.351 285.727 188.212 286.415 186.653C286.864 185.604 287.133 184.645 287.343 183.986C287.552 183.386 287.642 182.937 287.612 182.577C287.612 182.217 287.552 182.007 287.402 181.828Z" fill="#5452D3"/>
<path d="M363.523 182.906C362.895 182.427 362.177 182.097 361.638 181.797C361.04 181.468 359.634 180.928 359.424 180.868C358.197 180.478 356.911 180.209 355.624 180.119C354.337 180.029 353.081 180.029 351.884 180.119L350.896 180.209H350.777C350.448 180.239 350.088 180.299 349.759 180.388C347.665 180.838 345.72 181.527 343.925 182.517C343.865 182.547 343.775 182.607 343.715 182.637C343.925 180.748 344.134 178.98 344.343 177.391C344.403 177.001 344.433 176.642 344.493 176.252C344.493 176.222 344.493 176.192 344.493 176.132C345.72 166.391 346.707 160.306 346.917 158.957C347.066 158.028 346.468 157.129 345.271 157.129C344.702 157.129 343.775 157.129 342.877 157.429C341.531 157.878 340.274 158.208 339.017 160.246C338.329 161.355 337.731 162.794 337.282 164.682C337.162 165.252 337.042 165.851 336.923 166.511C336.923 166.511 334.29 185.394 333.182 197.833C332.973 200.291 332.793 202.479 332.734 204.248C332.734 204.607 332.704 204.997 332.674 205.387C332.674 205.357 332.674 205.327 332.674 205.327C332.674 205.417 332.674 205.536 332.674 205.626C332.644 206.196 332.524 207.455 332.524 208.174C332.464 213.449 331.956 218.605 332.315 220.433C332.734 222.472 337.79 221.872 338.688 220.883C339.167 220.343 339.616 218.095 339.885 217.676C343.446 218.005 343.087 221.033 348.293 221.602C348.862 221.662 349.34 221.722 349.939 221.752C350.507 221.782 351.465 221.782 351.495 221.782C352.722 221.512 359.813 221.812 366.456 212.251C367.294 211.052 368.072 209.733 368.79 208.204C369.657 206.376 370.226 204.517 370.495 202.539C371.902 192.678 368.461 186.713 363.523 182.906ZM342.249 197.893C342.428 196.754 342.728 195.585 343.206 194.506C344.134 192.408 345.181 190.909 346.258 189.83C349.67 186.413 353.47 187.252 355.325 187.852C357.539 188.571 358.915 190.13 359.723 191.958C360.471 193.637 360.741 195.525 360.711 197.114C360.681 198.253 360.591 199.302 360.441 200.291C360.112 202.569 359.514 204.427 358.915 206.076C358.646 206.855 358.287 207.575 357.838 208.264C356.252 210.782 353.769 212.64 351.555 213.27C349.969 213.719 347.036 213.719 344.852 211.471C343.536 210.122 342.488 207.964 342.159 204.577C342.099 204.128 341.8 201.79 342.069 199.062C342.129 198.672 342.159 198.283 342.249 197.893Z" fill="#5452D3"/>
<path d="M58.8655 144H56.519C56.1579 144 55.8691 144.289 55.8691 144.651V155.717C55.8691 156.079 56.1579 156.368 56.519 156.368H58.8655C59.2265 156.368 59.5153 156.079 59.5153 155.717V144.651C59.5153 144.289 59.2265 144 58.8655 144Z" fill="#5452D3"/>
<path d="M71.1405 147.182L69.1911 146.423C68.9023 146.314 68.5413 146.459 68.433 146.748L64.6063 156.657C64.498 156.946 64.6424 157.308 64.9312 157.416L66.8806 158.176C66.9528 158.212 67.025 158.212 67.0972 158.212C67.3138 158.212 67.5665 158.067 67.6387 157.85L71.5016 147.942C71.6099 147.652 71.4655 147.291 71.1405 147.182Z" fill="#5452D3"/>
<path d="M79.5516 154.814L78.1798 153.62C78.0354 153.476 77.8548 153.439 77.6382 153.439C77.4577 153.439 77.2772 153.548 77.1328 153.693L71.7899 159.84C71.6455 159.985 71.6094 160.166 71.6094 160.383C71.6094 160.564 71.7177 160.744 71.8621 160.889L73.2339 162.082C73.3783 162.191 73.5588 162.263 73.7393 162.263H73.7754C73.9559 162.263 74.1364 162.155 74.2808 162.01L79.6238 155.862C79.7682 155.718 79.8043 155.537 79.8043 155.32C79.7682 155.139 79.696 154.958 79.5516 154.814Z" fill="#5452D3"/>
<path d="M84.2465 163.781L83.38 162.009C83.3078 161.865 83.1634 161.72 83.019 161.684C82.8385 161.612 82.6941 161.648 82.5136 161.72L76.6292 164.577C76.3043 164.722 76.1598 165.119 76.3404 165.445L77.2068 167.217C77.279 167.362 77.4234 167.506 77.5678 167.542C77.64 167.579 77.6761 167.579 77.7483 167.579C77.8566 167.579 77.9649 167.579 78.0371 167.506L83.9216 164.649C84.2465 164.469 84.3909 164.071 84.2465 163.781Z" fill="#5452D3"/>
<path d="M51.2852 156.476L47.2419 146.857C47.0975 146.495 46.7004 146.35 46.3394 146.495L44.6066 147.218C44.4261 147.29 44.3178 147.435 44.2456 147.58C44.1734 147.761 44.1734 147.941 44.2456 148.086L48.2889 157.705C48.3972 157.959 48.6499 158.103 48.9026 158.139C49.0109 158.139 49.0831 158.139 49.1914 158.103L50.9242 157.38C51.1047 157.308 51.213 157.163 51.2852 157.018C51.3574 156.838 51.3574 156.657 51.2852 156.476Z" fill="#5452D3"/>
<path d="M44.3535 159.478L39.2632 153.583C39.0105 153.294 38.5773 153.294 38.3246 153.547L36.9167 154.849C36.6278 155.102 36.6278 155.536 36.8806 155.789L41.9347 161.684C42.043 161.828 42.2235 161.901 42.404 161.901C42.4401 161.901 42.4401 161.901 42.4762 161.901C42.6206 161.901 42.765 161.828 42.8733 161.72L44.2813 160.418C44.6062 160.165 44.6062 159.767 44.3535 159.478Z" fill="#5452D3"/>
<path d="M39.6976 164.902C39.6615 164.721 39.5532 164.576 39.3727 164.504L33.741 161.249C33.4161 161.068 33.0189 161.177 32.8384 161.502L31.8637 163.202C31.7915 163.347 31.7554 163.527 31.7915 163.708C31.8276 163.889 31.9359 164.034 32.1164 164.106L37.7482 167.361C37.8565 167.433 37.9648 167.433 38.0731 167.433C38.1453 167.433 38.1814 167.433 38.2536 167.397C38.4341 167.361 38.5785 167.252 38.6507 167.071L39.6254 165.372C39.6976 165.227 39.7337 165.083 39.6976 164.902Z" fill="#5452D3"/>
<path fill-rule="evenodd" clip-rule="evenodd" d="M58.1089 204.212L58.4338 204.175C59.914 203.995 61.3941 203.669 62.766 203.163C64.1017 202.657 65.3652 201.97 66.4844 201.102C67.6035 200.306 68.506 199.221 69.1197 197.992C69.8056 196.726 70.1306 195.279 70.0945 193.833V193.507C70.0945 191.988 69.6612 190.47 68.867 189.168C68.3616 188.336 67.6757 187.649 66.8815 187.106C66.0872 186.564 65.2208 186.166 64.3183 185.913C63.4158 185.66 62.4771 185.479 61.5385 185.407C60.636 185.334 59.7335 185.371 58.831 185.479L58.1089 185.551H58.0367C57.784 185.588 57.5313 185.624 57.3147 185.696C55.5458 186.094 53.849 186.817 52.3328 187.83C50.8526 188.806 49.553 190.072 48.5061 191.518C47.423 193.001 46.6288 194.665 46.1234 196.437C45.5819 198.389 45.2931 200.415 45.3292 202.44V202.874C45.4375 207.032 46.6649 210.287 48.9754 212.602C51.322 214.916 54.3544 215.856 58.1089 215.422H58.1811L59.2281 215.314C62.9104 214.663 66.1233 212.746 68.7226 209.781C69.1919 209.238 69.0475 209.058 68.7948 208.841C66.2317 206.852 64.6071 207.936 62.6216 208.768C62.0439 209.021 61.4663 209.275 60.9248 209.491C60.3833 209.708 59.8057 209.853 59.2281 209.962C59.1198 209.962 59.0115 209.998 58.9032 210.034C58.7949 210.07 58.6866 210.106 58.5782 210.106L58.1811 210.142C57.3147 210.215 56.4483 210.106 55.618 209.745C54.5349 209.238 53.6685 208.334 53.1992 207.213C52.9826 206.707 52.8382 206.164 52.6938 205.622C52.5855 205.08 52.4772 204.501 52.3689 203.959C53.3436 204.139 54.3183 204.248 55.3292 204.32C56.2317 204.32 57.1703 204.284 58.1089 204.212ZM53.0548 199.474C52.8743 199.474 52.6938 199.438 52.5133 199.366L52.3328 199.402C52.3328 198.606 52.405 197.811 52.5494 197.051C52.7299 196.147 53.0187 195.279 53.4519 194.484C53.8851 193.616 54.4988 192.856 55.2209 192.242C56.0512 191.555 57.0259 191.084 58.1089 190.904L58.2172 190.867C58.3255 190.867 58.4699 190.831 58.5782 190.795C58.6866 190.759 58.831 190.723 58.9393 190.723C59.8057 190.614 60.636 190.687 61.4663 190.904C62.0078 191.048 62.5133 191.338 62.9104 191.771C63.2353 192.133 63.488 192.567 63.6685 193.073C63.7768 193.507 63.849 193.905 63.849 194.339C63.849 194.52 63.849 194.737 63.7768 194.918C63.7407 195.641 63.488 196.328 63.0548 196.943C62.4771 197.738 61.6468 198.389 60.7443 198.751C59.8779 199.076 58.9754 199.293 58.0728 199.402L57.6396 199.474C56.9537 199.547 56.2678 199.583 55.5819 199.583C54.8959 199.583 54.3183 199.583 53.7768 199.547C53.5602 199.474 53.3075 199.474 53.0548 199.474Z" fill="#5452D3"/>
<path d="M60.0577 227.464L60.1299 227.392L60.0577 227.464ZM59.9855 227.537L60.0216 227.5L59.9855 227.537ZM60.1299 227.392L60.5992 226.886L62.4404 225.331L63.8844 224.354C63.9566 224.318 64.0288 224.282 64.101 224.246L64.2093 224.173C64.2815 224.137 64.3537 224.065 64.462 224.029L64.5342 223.993C64.6425 223.92 64.7509 223.884 64.8592 223.812C64.9675 223.74 65.0758 223.703 65.1841 223.631C67.3862 222.546 69.8411 221.787 72.5487 221.425C75.9782 220.955 79.7328 221.1 83.7761 221.859C84.462 222.004 85.184 221.787 85.7255 221.353C85.7977 221.28 85.8699 221.244 85.906 221.172C85.9782 221.1 86.0143 221.027 86.0865 220.955C86.1226 220.883 86.1948 220.81 86.2309 220.738C86.267 220.702 86.267 220.666 86.3031 220.629C86.3392 220.593 86.3392 220.557 86.3753 220.521C86.4114 220.449 86.4114 220.412 86.4475 220.34C86.5558 220.087 86.5919 219.798 86.5919 219.508L86.628 196.255L86.6641 173.653C86.6641 172.496 85.8338 171.52 84.7147 171.303C82.1876 170.833 79.7689 170.58 77.4223 170.543C73.74 163.094 66.3754 158.501 57.9639 158.465C57.9639 158.465 57.9639 158.465 57.9278 158.465C49.5162 158.465 42.1517 163.058 38.4333 170.507C36.0867 170.543 33.6679 170.797 31.1409 171.267C30.0217 171.484 29.1914 172.46 29.1914 173.617V196.255V219.436C29.1914 220.159 29.5163 220.81 30.0578 221.28C30.5993 221.751 31.3214 221.931 32.0073 221.787C34.4982 221.317 36.9531 221.1 39.2275 221.1C40.5993 221.1 41.935 221.208 43.1986 221.389C45.87 221.751 48.361 222.51 50.5632 223.631C53.8845 225.295 55.5451 227.32 55.87 227.717C56.1588 228.188 56.6281 228.549 57.1697 228.694C57.3863 228.766 57.639 228.802 57.8917 228.802C58.6859 228.802 59.4079 228.405 59.8411 227.754L59.9855 227.573M44.5343 169.422C45.7617 167.94 50.3827 163.058 57.8917 163.058C65.4368 163.058 70.0577 167.976 71.2851 169.458C71.7183 170.001 72.0432 170.435 72.2238 170.797C72.0793 170.833 71.8988 170.833 71.7544 170.869C68.5054 171.339 65.509 172.279 62.8375 173.653C60.5992 174.811 58.9747 176.113 57.9278 177.053C56.8808 176.076 55.2563 174.811 53.018 173.653C50.3466 172.279 47.3502 171.339 44.1011 170.869C43.9567 170.833 43.7762 170.833 43.5957 170.797C43.7762 170.435 44.065 169.965 44.5343 169.422ZM81.7905 216.688C78.2165 216.254 74.823 216.254 71.6822 216.688C68.4332 217.158 65.4368 218.098 62.7653 219.472C62.657 219.545 62.5487 219.581 62.4404 219.653L62.4043 219.689C61.3935 220.232 60.4548 220.846 59.5523 221.497C58.2527 222.546 57.639 222.546 56.1949 221.497L55.4729 220.991C54.787 220.521 54.065 220.087 53.3068 219.689L53.2707 219.653C53.1624 219.581 53.0541 219.545 52.9458 219.472C50.2744 218.098 47.278 217.158 44.0289 216.688C40.8881 216.218 37.4946 216.218 33.9206 216.652V196.255V175.642C37.2058 175.172 40.3466 175.172 43.1986 175.534C45.9061 175.896 48.361 176.655 50.5632 177.776C52.6209 178.825 54.065 179.982 54.8953 180.814C55.148 181.067 55.4007 181.32 55.5812 181.537L55.6173 181.573C57.278 183.164 58.5054 183.164 60.1299 181.573L60.2743 181.429C61.0325 180.597 62.6209 179.114 65.2202 177.812C67.4223 176.727 69.9133 175.968 72.5848 175.606C75.4367 175.208 78.5414 175.245 81.8627 175.715L81.8266 196.292L81.7905 216.688Z" fill="#5452D3"/>
</svg>
